<svg xmlns="http://www.w3.org/2000/svg" xmlns:xlink="http://www.w3.org/1999/xlink" width="20" height="20" version="1.1" viewBox="0 0 20 20"><title>telegram</title><desc>Created with Sketch.</desc><defs><linearGradient id="linearGradient-1" x1="66.7%" x2="41.7%" y1="16.7%" y2="75%"><stop offset="0%" stop-color="#37AEE2"/><stop offset="100%" stop-color="#1E96C8"/></linearGradient><linearGradient id="linearGradient-2" x1="66%" x2="85.1%" y1="43.7%" y2="80.2%"><stop offset="0%" stop-color="#EFF7FC"/><stop offset="100%" stop-color="#FFF"/></linearGradient></defs><g id="Page-1" fill="none" fill-rule="evenodd" stroke="none" stroke-width="1"><g id="telegram" fill-rule="nonzero"><circle id="Oval" cx="10" cy="10" r="10" fill="url(#linearGradient-1)"/><path id="Path" fill="#C8DAEA" d="M8.16666667,14.5833333 C7.84266667,14.5833333 7.89775,14.461 7.786,14.1525 L6.83333333,11.01725 L14.1666667,6.66666667"/><path id="Path" fill="#A9C9DD" d="M8.16666667,14.5833333 C8.41666667,14.5833333 8.52708333,14.469 8.66666667,14.3333333 L10,13.0368333 L8.33683333,12.0339167"/><path id="Path" fill="url(#linearGradient-2)" d="M8.33666667,12.0341667 L12.3666667,15.0115833 C12.8265833,15.2653333 13.1584167,15.1339167 13.273,14.5846667 L14.9134167,6.85441667 C15.0813333,6.18108333 14.65675,5.87558333 14.21675,6.07533333 L4.58425,9.78958333 C3.92675,10.0533333 3.93066667,10.4201667 4.46441667,10.5835833 L6.93633333,11.3551667 L12.6590833,7.74475 C12.92925,7.58091667 13.17725,7.66891667 12.97375,7.84958333"/></g></g></svg>