<svg xmlns="http://www.w3.org/2000/svg" xmlns:xlink="http://www.w3.org/1999/xlink" id="Layer_1" x="0" y="0" version="1.1" viewBox="0 0 320.4 124.7" xml:space="preserve" style="enable-background:new 0 0 320.4 124.7"><style type="text/css">.st0{fill:url(#SVGID_1_)}.st1{fill:#0035dd}.st2{fill:#003ed9}.st3{fill:#003cda}.st4{fill:#00b2af}.st5{fill:#00c0ab}.st6{fill:#00e2a0}.st7{fill:#00d3a6}.st8{fill:#00d1a7}.st9{fill:#004cd3}.st10{fill:#00b5b0}.st11{fill:#00a0b8}.st12{fill:#00cea7}.st13{fill:#00beae}.st14{fill:#00afb2}.st15{fill:#00b7af}.st16{fill:#00bcad}.st17{fill:#007bc3}.st18{fill:#00a6b6}.st19{fill:#0051d1}.st20{fill:#0054d1}.st21{fill:#0063cb}.st22{fill:#0089c0}.st23{fill:#00a0b6}.st24{fill:#0195bb}.st25{fill:#01a4b7}.st26{fill:#009db8}.st27{fill:#0096bb}.st28{fill:#0071c7}.st29{fill:#0145d6}.st30{fill:#008cbd}.st31{fill:#008dbd}.st32{fill:#007cc2}.st33{fill:#005fcd}.st34{fill:#005ecf}.st35{fill:#0068cb}.st36{fill:#0042d7}.st37{fill:#0079c4}.st38{fill:#0072c8}.st39{fill:#0052d2}.st40{fill:#0064cc}.st41{fill:#0062cd}.st42{fill:#005bce}.st43{fill:#0157d0}.st44{fill:#0056d1}.st45{fill:#004cd5}.st46{fill:#014ad5}.st47{fill:#fff}.st48{fill:#0053d2}</style><switch><g><g><linearGradient id="SVGID_1_" x1="-.061" x2="124.592" y1="62.327" y2="62.327" gradientUnits="userSpaceOnUse"><stop offset="0" style="stop-color:#0c9"/><stop offset="1" style="stop-color:#03c"/></linearGradient><path d="M117.5,5.5c-1.2-1.1-2.6-2.1-4.1-2.9c-1.9-1-3.9-1.8-6.1-2.2C106,0.1,104.6,0,103.2,0H64.5h-2.2h-9.5h-0.3 H40.2h-9.8H24h-2.6C15,0,9.4,2.8,5.4,7.1C2.9,10,1,13.5,0.3,17.4C0.1,18.6,0,19.9,0,21.1l0,16.3l0,4.2l0,3.2v9v13.9v1.6v11.2 L0,96.7l0,6.6c0,3.3,0.7,6.6,2.2,9.5c1.2,2.4,2.9,4.6,4.9,6.4c3.8,3.4,8.7,5.4,14.2,5.4h5.1h25.7H58h6.5h9.6h19.5h7.9h0.1h1.6 c6.6,0,12.6-3,16.5-7.8c1.3-1.6,2.4-3.3,3.2-5.2c1.1-2.6,1.7-5.4,1.7-8.4v-11v-3.2v-8.2v-24V44v-1.1v-2.1V23.6v-2.2 C124.6,15.1,121.8,9.5,117.5,5.5z" class="st0"/><g><polygon points="124.6 92.2 124.6 89.1 122.3 92" class="st1"/><polygon points="122.3 92 124.6 89.1 124.6 80.9 117.1 87.6" class="st2"/><polygon points="124.6 80.9 124.6 56.9 117.1 87.6" class="st3"/><polygon points="34.2 11.7 30.3 0 24 0 22.5 19.7" class="st4"/><path d="M24,0h-2.6C15,0,9.4,2.8,5.4,7.1l17.1,12.6L24,0z" class="st5"/><polygon points="-.1 67.7 -.1 69.3 .9 68.2" class="st6"/><path d="M122.9,111.6c1.1-2.6,1.7-5.4,1.7-8.4v-11l-2.3-0.3L122.9,111.6z" class="st2"/><path d="M5.4,7.1C2.9,10,1,13.5,0.3,17.4C0.1,18.6,0,19.9,0,21.1l0,16.3l22.6-17.7L5.4,7.1z" class="st7"/><polygon points="22.5 19.7 0 37.4 -.1 41.7 12.7 41.7" class="st8"/><polygon points="7.3 53.8 -.1 53.8 -.1 67.7 .9 68.2" class="st8"/><polygon points="108.8 35.3 124.6 42.9 124.6 40.8 113 27.3" class="st9"/><polygon points="40.2 85.4 42 86.1 41.9 85.4" class="st10"/><polygon points="28.4 41.7 35.5 41.7 34.6 35.7" class="st10"/><polygon points="40.2 73.7 37.3 53.8 15.8 53.8 .9 68.2 40.2 85.3" class="st10"/><polygon points="27.9 103 52.1 124.7 58 124.7 42 86.1" class="st11"/><path d="M0,96.7l0,6.6c0,3.3,0.7,6.6,2.2,9.5c1.2,2.4,2.9,4.6,4.9,6.4L27.9,103L0,96.7z" class="st12"/><polygon points=".9 68.2 -.1 69.3 -.1 80.5 0 96.7 27.9 103" class="st12"/><path d="M7.1,119.2c3.8,3.4,8.7,5.4,14.2,5.4h5.1l1.5-21.6L7.1,119.2z" class="st13"/><polygon points="34.2 11.7 22.5 19.7 34.6 35.7" class="st14"/><polygon points="40.2 85.4 40.2 85.3 .9 68.2 27.9 103 42 86.1 40.2 85.4" class="st15"/><polygon points="7.3 53.8 .9 68.2 15.8 53.8" class="st16"/><polygon points="22.5 19.7 12.7 41.7 28.4 41.7 34.6 35.7" class="st16"/><polygon points="77.3 88.9 64.5 124.7 74.1 124.7 88.7 114.9" class="st17"/><polygon points="26.4 124.7 52.1 124.7 27.9 103" class="st18"/><polygon points="117.1 87.6 124.6 56.9 124.6 44 92.8 39.8" class="st19"/><polygon points="92.8 39.8 124.6 44 124.6 42.9 108.8 35.3" class="st20"/><polygon points="88.7 114.9 93.6 124.7 101.5 124.7 101.5 124.6" class="st21"/><polygon points="62.1 14.5 62.4 41.7 64.9 41.7 69.2 13.2" class="st22"/><polygon points="63 53.8 62.5 53.8 62.5 57.1" class="st22"/><polygon points="52.4 13.5 52.4 22 62.1 14.5" class="st23"/><polygon points="40.2 31.4 40.2 12.3 34.2 11.7 34.6 35.7" class="st23"/><polygon points="52.4 13.5 62.1 14.5 62.3 0 52.7 0 52.4 .2" class="st24"/><polygon points="40.2 7.9 34.2 11.7 40.2 12.3" class="st24"/><polygon points="40.2 7.9 40.2 0 30.3 0 34.2 11.7" class="st25"/><polygon points="52.7 0 52.4 0 52.4 .2" class="st25"/><polygon points="41.9 85.4 42 86.1 42.5 85.4" class="st26"/><polygon points="35.5 41.7 42.4 41.7 34.6 35.7" class="st26"/><polygon points="40.2 61 52.4 61 52.4 71.4 62.5 57.1 58.2 53.8 37.3 53.8 40.2 73.7" class="st26"/><polygon points="62.5 53.8 58.2 53.8 62.5 57.1" class="st27"/><polygon points="52.4 22 52.4 34.5 52.4 34.5 40.2 34.5 40.2 31.4 34.6 35.7 42.4 41.7 62.4 41.7 62.1 14.5" class="st27"/><polygon points="91.5 25.3 69.2 13.2 92.8 39.8" class="st28"/><path d="M124.6,23.6v-2.2c0-6.3-2.7-11.9-7.1-15.8L113,27.3L124.6,23.6z" class="st29"/><polygon points="69.2 13.2 64.5 0 62.3 0 62.1 14.5" class="st22"/><polygon points="52.4 71.4 52.4 73 69.9 73 62.5 57.1" class="st30"/><polygon points="42.5 85.4 42 86.1 77.3 88.9 75.6 85.4" class="st30"/><polygon points="42 86.1 58 124.7 64.5 124.7 77.3 88.9" class="st31"/><polygon points="68.4 53.8 63 53.8 62.5 57.1" class="st32"/><polygon points="69.2 13.2 64.9 41.7 84.2 41.7 84.2 44.8 92.8 39.8" class="st32"/><polygon points="101.5 124.6 111.2 94.1 88.7 114.9" class="st33"/><polygon points="77.3 88.9 111.2 94.1 117.1 87.6" class="st34"/><polygon points="88.7 114.9 111.2 94.1 77.3 88.9" class="st35"/><polygon points="124.6 40.8 124.6 23.6 113 27.3" class="st36"/><polygon points="75.6 85.4 77.3 88.9 78.4 85.4" class="st37"/><polygon points="69.9 73 71.8 73 71.8 53.8 68.4 53.8 62.5 57.1" class="st37"/><polygon points="84.2 44.8 84.2 67.1 92.8 39.8" class="st37"/><polygon points="74.1 124.7 93.6 124.7 88.7 114.9" class="st38"/><path d="M111.2,94.1l-9.7,30.5l0.1,0h1.6c6.6,0,12.6-3,16.5-7.8L111.2,94.1z" class="st39"/><polygon points="92.8 39.8 84.2 67.1 84.2 85.4 78.4 85.4 77.3 88.9 117.1 87.6" class="st40"/><polygon points="108.8 35.3 91.5 25.3 92.8 39.8" class="st41"/><polygon points="113 27.3 91.5 25.3 108.8 35.3" class="st42"/><path d="M113,27.3l4.6-21.7c-1.2-1.1-2.6-2.1-4.1-2.9L91.5,25.3L113,27.3z" class="st43"/><polygon points="101.5 124.7 101.6 124.7 101.5 124.6" class="st44"/><polygon points="117.1 87.6 111.2 94.1 122.3 92" class="st45"/><path d="M91.5,25.3l21.9-22.7c-1.9-1-3.9-1.8-6.1-2.2L69.2,13.2L91.5,25.3z" class="st35"/><path d="M107.3,0.4C106,0.1,104.6,0,103.2,0H64.5l4.7,13.2L107.3,0.4z" class="st28"/><path d="M111.2,94.1l8.5,22.7c1.3-1.6,2.4-3.3,3.2-5.2L122.3,92L111.2,94.1z" class="st46"/><polygon points="40.2 12.3 40.2 31.4 40.2 34.5 52.4 34.5 52.4 34.5 52.4 22 52.4 13.5 52.4 .2 52.4 0 40.2 0 40.2 7.9" class="st47"/><polygon points="15.8 53.8 37.3 53.8 58.2 53.8 62.5 53.8 63 53.8 68.4 53.8 71.8 53.8 71.8 73 69.9 73 52.4 73 52.4 71.4 52.4 61 40.2 61 40.2 73.7 40.2 85.3 40.2 85.4 40.2 85.4 41.9 85.4 42.5 85.4 75.6 85.4 78.4 85.4 84.2 85.4 84.2 67.1 84.2 44.8 84.2 41.7 64.9 41.7 62.4 41.7 42.4 41.7 35.5 41.7 28.4 41.7 12.7 41.7 -.1 41.7 -.1 44.9 -.1 53.8 7.3 53.8" class="st47"/></g></g><g><path d="M180.8,50.5c-5.7,0-11.1,2.2-13.3,6.4V26.9h-13.4v69.9h13.4v-5.5c2.2,4.1,7.7,6.6,13.3,6.6 c11.7,0,21.9-9.2,21.9-23.5C202.7,59.7,192.4,50.5,180.8,50.5z M178.1,85c-5.5,0-10.5-4.5-10.5-10.9c0-6.9,5-10.8,10.5-10.8 c5.8,0,10.5,4.4,10.5,10.8C188.6,80.7,183.8,85,178.1,85z" class="st48"/><polygon points="305 96.7 320.4 96.7 302.8 72.2 317.7 51.5 302.1 51.5 295.3 61.4 288.6 51.5 273 51.5 287.9 72.2 270.1 96.7 285.7 96.7 295.3 82.9" class="st48"/><path d="M222.4,47.6c0-3.5,2.9-6.4,6.4-6.4h20.5c0,0,0,0,0,0l-33.6,43.9l-1.6,2.1c1.8,5.5,7,9.5,13.2,9.5h20.5 c7.7,0,13.9-6.2,13.9-13.9V54.1l-8.7,11v16.6c0,3.5-2.9,6.4-6.4,6.4H226c-1.1,0-2.1-0.2-2.8-0.6l30.9-40.1v0l5.9-7.7 c-2.3-4.4-7-7.5-12.3-7.5h-20.5c-7.7,0-13.9,6.2-13.9,13.9V72l9-11.6V47.6z" class="st48"/></g></g></switch></svg>